<svg width="36" height="48" viewBox="0 0 36 48" fill="none" xmlns="http://www.w3.org/2000/svg">
<path d="M35.8114 31.9152H35.6596C34.5974 24.935 28.8312 24.4798 24.4306 28.2734C21.244 31.0048 17.2987 35.7088 17.2987 31.1565C17.2987 20.3827 6.82844 25.0868 0 34.3431V24.4798C6.82844 15.3752 17.2987 10.5194 17.2987 21.2932C17.2987 25.6937 21.3958 20.9897 24.4306 18.4101C29.2864 14.313 35.8114 15.2235 35.8114 24.3281V31.9152ZM0.151743 8.85026C6.6767 0.200897 16.6917 -4.3514 16.6917 5.81539C16.6917 10.0642 20.4853 5.51191 23.5202 3.08402C28.2242 -0.861305 34.4457 0.0491562 34.4457 8.85026V16.1339H34.294C33.2318 9.45723 27.769 9.002 23.5202 12.6438C20.6371 15.2235 16.6917 19.624 16.6917 15.3752C16.6917 5.20842 6.6767 9.76072 0.151743 17.8031V8.85026Z" fill="black"/>
<path d="M7.71283 38.6524C7.71826 38.6713 7.72537 38.6719 7.73417 38.6543C8.24903 37.6309 9.04996 36.9889 10.137 36.7282C10.3172 36.6848 10.5017 36.655 10.6906 36.6388C11.0856 36.6047 11.495 36.6197 11.9188 36.6836C12.3537 36.7494 12.7461 36.8814 13.0959 37.0797C13.4805 37.2978 13.7858 37.5904 14.0119 37.9574C14.0871 38.0795 14.1565 38.212 14.2199 38.3549C14.2778 38.485 14.3282 38.6253 14.3712 38.7757C14.4964 39.2123 14.5609 39.6549 14.5647 40.1037C14.568 40.5058 14.5682 41.2954 14.5652 42.4725C14.5609 44.1539 14.5613 45.8387 14.5663 47.5268C14.5664 47.5287 14.566 47.5305 14.5653 47.5323C14.5646 47.534 14.5636 47.5356 14.5623 47.5369C14.5609 47.5382 14.5593 47.5393 14.5576 47.54C14.5558 47.5408 14.5539 47.5411 14.552 47.5411L13.2946 47.5394C13.2908 47.5394 13.2872 47.5379 13.2845 47.5353C13.2818 47.5326 13.2803 47.5289 13.2803 47.5251C13.2803 45.7241 13.2815 43.9301 13.284 42.1431C13.2851 41.2755 13.2769 40.5724 13.2593 40.0336C13.2488 39.7104 13.184 39.3769 13.065 39.0331C12.8864 38.5169 12.5506 38.1525 12.0574 37.9398C11.8737 37.8605 11.6689 37.8033 11.4432 37.7679C11.1496 37.722 10.8541 37.7065 10.5569 37.7217C9.81075 37.76 9.20867 38.0484 8.7507 38.5868C8.6356 38.7221 8.53173 38.877 8.43909 39.0516C8.26784 39.3739 8.14516 39.7194 8.07105 40.088C7.98365 40.5215 7.93761 40.9512 7.93293 41.3769C7.93255 41.4023 7.93087 41.4553 7.92788 41.5359C7.92619 41.5807 7.92535 41.6336 7.92535 41.6945C7.92535 43.6335 7.92535 45.5769 7.92535 47.5249C7.92535 47.5287 7.92381 47.5324 7.92107 47.5352C7.91834 47.5379 7.91462 47.5394 7.91075 47.5394L6.64353 47.5448C6.63913 47.5448 6.63492 47.543 6.63181 47.5398C6.62871 47.5367 6.62696 47.5324 6.62696 47.5279C6.62696 45.0967 6.62696 42.6734 6.62696 40.2578C6.62696 39.8966 6.58251 39.5562 6.49362 39.2366C6.43878 39.0389 6.37075 38.8653 6.28952 38.716C6.06419 38.3013 5.72843 38.0142 5.28226 37.8548C5.12374 37.7982 4.94145 37.7586 4.73539 37.736C4.09775 37.6666 3.4983 37.7719 2.93702 38.0519C2.5629 38.2386 2.24829 38.5221 1.9932 38.9024C1.7527 39.2609 1.57547 39.673 1.46149 40.1387C1.3797 40.4727 1.32861 40.8114 1.30821 41.1549C1.29006 41.4606 1.28126 41.7667 1.28182 42.073C1.28463 43.8905 1.28603 45.7079 1.28603 47.5254C1.28603 47.5291 1.28456 47.5327 1.28192 47.5353C1.27929 47.538 1.27572 47.5394 1.272 47.5394L0.0204934 47.5448C0.0180234 47.5448 0.0155776 47.5443 0.0132955 47.5433C0.0110135 47.5424 0.00893998 47.541 0.0071934 47.5393C0.00544681 47.5375 0.00406137 47.5355 0.00311613 47.5332C0.00217088 47.5309 0.00168438 47.5285 0.00168438 47.526L0 36.9412C0 36.9374 0.00144924 36.9338 0.00402897 36.9311C0.0066087 36.9284 0.0101076 36.9269 0.0137559 36.9269L1.16307 36.9222C1.16962 36.9221 1.17594 36.9247 1.18062 36.9294C1.18531 36.9342 1.18798 36.9406 1.18806 36.9474L1.19452 38.688C1.19458 38.6927 1.19584 38.6972 1.19811 38.7008C1.20038 38.7045 1.20355 38.707 1.20715 38.7082C1.22306 38.7132 1.23812 38.7069 1.25235 38.6891C1.26956 38.6678 1.28482 38.6451 1.29811 38.621C1.57191 38.1235 1.92292 37.7037 2.35113 37.3617C2.68913 37.0917 3.0932 36.8939 3.56333 36.7683C4.09916 36.6253 4.64312 36.5852 5.19523 36.648C5.58077 36.6917 5.94488 36.7975 6.28756 36.9653C6.46124 37.0504 6.62041 37.1479 6.76508 37.258C7.2311 37.6123 7.54702 38.0771 7.71283 38.6524Z" fill="black"/>
<path d="M16.8509 42.4665C16.8637 43.3249 17.0532 44.1284 17.4194 44.8771C17.5815 45.2079 17.7942 45.5134 18.0577 45.7935C18.1999 45.9449 18.3474 46.0773 18.5001 46.1907C18.9671 46.5378 19.4995 46.7447 20.0972 46.8115C20.5099 46.8576 20.9206 46.8441 21.3294 46.771C22.2911 46.5992 23.0222 46.1131 23.5228 45.3127C23.7634 44.9276 23.9481 44.4907 24.0766 44.0018C24.0776 43.9977 24.08 43.9941 24.0833 43.9915C24.0866 43.9889 24.0906 43.9874 24.0948 43.9874L25.4458 43.98C25.448 43.98 25.45 43.9804 25.4519 43.9813C25.4538 43.9822 25.4555 43.9835 25.4568 43.9851C25.4581 43.9867 25.4591 43.9886 25.4596 43.9907C25.46 43.9927 25.4601 43.9948 25.4596 43.9968C25.3361 44.5532 25.1503 45.0814 24.9022 45.5815C24.4055 46.583 23.6414 47.2787 22.61 47.6685C22.434 47.735 22.243 47.7916 22.037 47.8383C21.2779 48.0102 20.5039 48.045 19.7152 47.9429C19.2139 47.8779 18.7413 47.7428 18.2974 47.5377C17.6247 47.2268 17.071 46.7746 16.6363 46.181C16.3567 45.7988 16.1331 45.387 15.9654 44.9454C15.8179 44.5569 15.7066 44.1593 15.6313 43.7526C15.5984 43.574 15.569 43.3794 15.543 43.1687C15.4135 42.1209 15.4769 41.0821 15.7331 40.0522C15.8539 39.5675 16.0268 39.1098 16.2519 38.679C16.4631 38.2754 16.7298 37.9035 17.0521 37.5633C17.581 37.0049 18.2162 36.6131 18.9578 36.3876C19.3913 36.2557 19.8334 36.1825 20.284 36.1679C20.486 36.1616 20.6854 36.163 20.8824 36.172C21.3875 36.1953 21.876 36.2945 22.3478 36.4697C22.5382 36.5406 22.7192 36.6232 22.8908 36.7175C23.456 37.0286 23.9297 37.4475 24.3119 37.9744C24.5869 38.3538 24.809 38.7614 24.9782 39.1973C25.3195 40.0771 25.491 40.9891 25.4925 41.9331C25.4927 42.0981 25.4928 42.2619 25.4928 42.4245C25.4928 42.4269 25.4924 42.4292 25.4915 42.4314C25.4905 42.4336 25.4892 42.4356 25.4875 42.4373C25.4858 42.4389 25.4838 42.4403 25.4816 42.4412C25.4794 42.4421 25.477 42.4425 25.4746 42.4425C23.0819 42.4425 20.6931 42.4425 18.3082 42.4425C17.6696 42.4425 17.1888 42.4455 16.8659 42.4514C16.8639 42.4514 16.8619 42.4519 16.8601 42.4526C16.8582 42.4534 16.8566 42.4545 16.8552 42.4559C16.8538 42.4573 16.8527 42.459 16.852 42.4608C16.8513 42.4626 16.8509 42.4645 16.8509 42.4665ZM18.0723 38.4002C17.9085 38.5752 17.7757 38.742 17.6739 38.9005C17.2121 39.6197 16.9351 40.414 16.8428 41.2834C16.8426 41.2853 16.8428 41.2872 16.8434 41.289C16.844 41.2907 16.845 41.2924 16.8462 41.2938C16.8475 41.2952 16.8491 41.2963 16.8508 41.2971C16.8525 41.2978 16.8544 41.2982 16.8563 41.2982H24.0921C24.0944 41.2982 24.0965 41.2977 24.0986 41.2969C24.1006 41.296 24.1025 41.2948 24.104 41.2932C24.1055 41.2916 24.1067 41.2898 24.1075 41.2877C24.1083 41.2857 24.1087 41.2835 24.1086 41.2813C24.0871 40.7208 23.9762 40.1805 23.776 39.6603C23.6289 39.2778 23.4283 38.9251 23.174 38.6022C22.6144 37.8917 21.8925 37.4761 21.0084 37.3554C20.8113 37.3284 20.6122 37.3188 20.4112 37.3264C19.4884 37.3617 18.7088 37.7196 18.0723 38.4002Z" fill="black"/>
<path d="M27.6538 42.4605C27.6616 43.4116 27.8676 44.2872 28.2719 45.0874C28.4157 45.3722 28.602 45.6387 28.8306 45.8869C28.9649 46.0329 29.1034 46.1594 29.2462 46.2664C29.5524 46.4964 29.8839 46.6557 30.2406 46.7444C30.5796 46.8287 30.9289 46.8566 31.2883 46.828C31.4793 46.8128 31.6589 46.7862 31.827 46.7482C32.3733 46.6253 32.8459 46.3547 33.2449 45.9366C33.369 45.8065 33.4856 45.6563 33.5947 45.4859C33.8831 45.0348 34.0873 44.5385 34.2073 43.9968C34.2081 43.9928 34.2102 43.9891 34.2132 43.9866C34.2161 43.984 34.2198 43.9826 34.2236 43.9826L35.4398 43.9791C35.4432 43.9791 35.4466 43.9799 35.4496 43.9815C35.4527 43.9831 35.4554 43.9854 35.4576 43.9883C35.4597 43.9911 35.4612 43.9945 35.462 43.9981C35.4628 44.0016 35.4628 44.0053 35.4621 44.0089C35.3459 44.5955 35.1633 45.15 34.9142 45.6724C34.3764 46.8004 33.5478 47.5174 32.4285 47.8232C31.9887 47.9434 31.5086 48.0023 30.988 47.9999C30.5775 47.998 30.1737 47.9465 29.7767 47.8456C29.5904 47.7985 29.417 47.742 29.2562 47.676C28.5802 47.3989 28.016 46.9505 27.5636 46.3306C27.3061 45.9777 27.0943 45.5853 26.9282 45.1533C26.7399 44.6637 26.6051 44.1571 26.5238 43.6336C26.4366 43.0736 26.3968 42.5095 26.4042 41.9415C26.4132 41.24 26.507 40.5448 26.6855 39.8559C26.8326 39.2875 27.0483 38.7597 27.3326 38.2726C27.4326 38.101 27.539 37.9417 27.6519 37.7947C28.3895 36.8327 29.3611 36.2963 30.5668 36.1853C31.2221 36.125 31.8447 36.1927 32.4344 36.3884C32.6109 36.4469 32.7795 36.5183 32.9402 36.6027C33.6211 36.9601 34.1673 37.4924 34.5788 38.1996C34.814 38.6041 35 39.034 35.1367 39.4892C35.4236 40.4432 35.5441 41.4226 35.4985 42.4274C35.4983 42.4313 35.4968 42.4351 35.4942 42.4378C35.4915 42.4406 35.488 42.4421 35.4844 42.4421C34.2476 42.4386 32.0807 42.4367 28.9836 42.4365C28.42 42.4365 27.9811 42.4395 27.6671 42.4454C27.6654 42.4454 27.6636 42.4458 27.662 42.4466C27.6603 42.4474 27.6588 42.4485 27.6576 42.4499C27.6564 42.4513 27.6554 42.453 27.6548 42.4548C27.6541 42.4566 27.6538 42.4585 27.6538 42.4605ZM28.7624 38.3979C28.4814 38.7366 28.2556 39.1146 28.0851 39.5317C27.8606 40.0815 27.7178 40.6629 27.6565 41.2761C27.6564 41.278 27.6565 41.28 27.6571 41.2818C27.6576 41.2836 27.6585 41.2853 27.6597 41.2867C27.6609 41.2881 27.6623 41.2893 27.6639 41.2901C27.6655 41.2908 27.6673 41.2912 27.669 41.2912H34.2358C34.2376 41.2912 34.2393 41.2908 34.241 41.2901C34.2426 41.2893 34.2441 41.2882 34.2453 41.2869C34.2466 41.2855 34.2475 41.2839 34.2482 41.2821C34.2488 41.2803 34.2492 41.2784 34.2491 41.2764C34.2299 40.5072 34.0552 39.79 33.7248 39.125C33.6346 38.9437 33.5372 38.7777 33.4327 38.627C33.2702 38.3929 33.0934 38.1929 32.9024 38.027C32.3053 37.509 31.6236 37.2727 30.8576 37.3182C30.6724 37.3291 30.4932 37.3559 30.32 37.3986C29.7096 37.549 29.1904 37.8821 28.7624 38.3979Z" fill="black"/>
</svg>
